<?xml version="1.0" encoding="UTF-8" standalone="no"?>
<!-- Generator: Adobe Illustrator 16.0.0, SVG Export Plug-In . SVG Version: 6.00 Build 0)  -->

<svg
   xmlns:dc="http://purl.org/dc/elements/1.1/"
   xmlns:cc="http://creativecommons.org/ns#"
   xmlns:rdf="http://www.w3.org/1999/02/22-rdf-syntax-ns#"
   xmlns:svg="http://www.w3.org/2000/svg"
   xmlns="http://www.w3.org/2000/svg"
   xmlns:sodipodi="http://sodipodi.sourceforge.net/DTD/sodipodi-0.dtd"
   xmlns:inkscape="http://www.inkscape.org/namespaces/inkscape"
   version="1.1"
   id="Layer_1"
   x="0px"
   y="0px"
   width="24px"
   height="24px"
   viewBox="0 0 24 24"
   enable-background="new 0 0 24 24"
   xml:space="preserve"
   inkscape:version="0.48.3.1 r9886"
   sodipodi:docname="del.svg"><metadata
   id="metadata9"><rdf:RDF><cc:Work
       rdf:about=""><dc:format>image/svg+xml</dc:format><dc:type
         rdf:resource="http://purl.org/dc/dcmitype/StillImage" /></cc:Work></rdf:RDF></metadata><defs
   id="defs7" /><sodipodi:namedview
   pagecolor="#ffffff"
   bordercolor="#666666"
   borderopacity="1"
   objecttolerance="10"
   gridtolerance="10"
   guidetolerance="10"
   inkscape:pageopacity="0"
   inkscape:pageshadow="2"
   inkscape:window-width="1301"
   inkscape:window-height="744"
   id="namedview5"
   showgrid="false"
   inkscape:zoom="2"
   inkscape:cx="-76"
   inkscape:cy="12"
   inkscape:window-x="65"
   inkscape:window-y="24"
   inkscape:window-maximized="1"
   inkscape:current-layer="Layer_1" />
<path
   d="M22.245,4.015c0.313,0.313,0.313,0.826,0,1.139l-6.276,6.27c-0.313,0.312-0.313,0.826,0,1.14l6.273,6.272  c0.313,0.313,0.313,0.826,0,1.14l-2.285,2.277c-0.314,0.312-0.828,0.312-1.142,0l-6.271-6.271c-0.313-0.313-0.828-0.313-1.141,0  l-6.276,6.267c-0.313,0.313-0.828,0.313-1.141,0l-2.282-2.28c-0.313-0.313-0.313-0.826,0-1.14l6.278-6.269  c0.313-0.312,0.313-0.826,0-1.14L1.709,5.147c-0.314-0.313-0.314-0.827,0-1.14l2.284-2.278C4.308,1.417,4.821,1.417,5.135,1.73  L11.405,8c0.314,0.314,0.828,0.314,1.141,0.001l6.276-6.267c0.312-0.312,0.826-0.312,1.141,0L22.245,4.015z"
   id="path3"
   style="fill:#ffffff;fill-opacity:1" />
</svg>